<?xml version="1.0" standalone="no"?>
<!DOCTYPE svg PUBLIC "-//W3C//DTD SVG 20010904//EN"
 "http://www.w3.org/TR/2001/REC-SVG-20010904/DTD/svg10.dtd">
<svg version="1.0" xmlns="http://www.w3.org/2000/svg"
 width="887.000000pt" height="887.000000pt" viewBox="0 0 887.000000 887.000000"
 preserveAspectRatio="xMidYMid meet">
<metadata>
Created by potrace 1.14, written by Peter Selinger 2001-2017
</metadata>
<g transform="translate(0.000000,887.000000) scale(0.100000,-0.100000)"
fill="#000000" stroke="none">
<path d="M2906 6875 c-196 -68 -338 -353 -383 -770 -10 -94 -10 -570 1 -670 4
-44 9 -96 11 -115 5 -53 15 -132 20 -163 5 -27 0 -34 -90 -133 -5 -6 -23 -28
-40 -49 -16 -21 -40 -50 -51 -64 -56 -68 -188 -279 -245 -391 -109 -213 -163
-356 -219 -575 l-39 -150 -488 -1 c-332 -1 -501 -5 -530 -13 -58 -16 -133 -78
-165 -137 -29 -55 -52 -155 -37 -165 13 -8 1839 -8 1843 0 2 3 7 23 10 44 88
553 318 944 633 1072 34 13 76 27 95 30 18 3 45 8 60 11 58 12 208 6 268 -11
3 -1 19 -5 35 -10 76 -20 189 -90 255 -157 127 -129 222 -321 292 -593 23 -87
23 -91 6 -140 -32 -95 -6 -188 75 -272 l41 -43 247 0 246 0 43 46 c75 82 103
184 74 268 -9 25 -13 55 -9 76 3 19 8 49 11 65 9 49 84 265 117 335 118 248
295 397 516 435 46 8 189 8 231 1 148 -28 259 -86 378 -200 96 -92 177 -219
265 -416 43 -97 115 -365 131 -488 3 -24 8 -47 10 -51 3 -4 421 -7 928 -7
l923 1 -3 45 c-9 121 -110 242 -222 265 -19 5 -253 8 -520 9 l-484 1 -27 118
c-15 65 -31 125 -35 135 -9 20 -7 15 -23 72 -38 134 -162 403 -262 567 -81
134 -214 310 -307 408 -27 28 -31 40 -27 66 3 17 8 52 10 78 3 25 7 62 10 81
27 192 27 745 0 881 -3 13 -7 41 -10 62 -8 64 -45 197 -76 278 -55 143 -156
272 -252 321 -47 24 -120 30 -180 15 -84 -20 -218 -128 -312 -252 -39 -52
-135 -195 -135 -202 0 -3 -8 -17 -19 -31 -36 -52 -169 -325 -234 -483 l-15
-37 -79 20 c-43 10 -89 21 -103 24 -14 2 -47 9 -75 14 -164 32 -291 43 -490
43 -135 1 -246 -6 -330 -18 -16 -3 -46 -7 -65 -9 -75 -11 -285 -57 -322 -71
-18 -7 -20 -4 -83 145 -48 113 -145 301 -211 412 -207 343 -417 502 -588 443z"/>
<path d="M3225 4043 c-78 -17 -109 -30 -171 -69 -116 -73 -212 -206 -239 -331
-10 -50 17 -97 65 -113 65 -21 116 11 134 84 11 43 68 128 114 167 109 93 269
94 389 3 43 -33 99 -115 119 -177 17 -52 58 -87 102 -87 33 0 73 30 88 66 30
71 -50 231 -166 337 -35 31 -69 57 -75 57 -7 0 -18 6 -24 13 -9 11 -57 31
-103 43 -5 1 -9 3 -10 4 -2 1 -16 4 -33 6 -85 10 -136 9 -190 -3z"/>
<path d="M5640 4053 c-197 -24 -381 -179 -440 -370 -17 -56 -18 -68 -6 -96 17
-41 36 -57 78 -63 53 -8 90 22 117 94 89 245 371 313 537 129 41 -46 84 -123
84 -152 0 -6 11 -25 25 -41 21 -24 33 -29 70 -29 62 0 100 37 99 98 0 54 -55
173 -111 240 -112 135 -290 209 -453 190z"/>
<path d="M3408 2915 c-2 -2 -30 -5 -63 -8 -88 -8 -160 -33 -198 -70 l-33 -32
2 -705 c1 -388 2 -705 3 -705 2 0 4 -8 6 -18 7 -34 41 -82 74 -101 42 -24 203
-31 301 -13 l65 12 -2 440 c0 242 -3 468 -6 503 -3 34 -2 62 2 62 4 0 27 -46
51 -102 42 -100 156 -339 315 -661 91 -183 128 -226 222 -253 140 -41 380 -14
431 49 12 15 14 1410 1 1464 -21 94 -93 134 -239 133 -124 0 -196 -14 -202
-38 -6 -27 -2 -672 6 -847 4 -96 3 -156 -2 -150 -5 6 -24 48 -42 95 -55 142
-385 804 -421 845 -42 47 -96 72 -194 89 -41 7 -76 12 -77 11z"/>
<path d="M138 2892 c-57 -15 -105 -60 -114 -109 -11 -58 1 -196 19 -234 l18
-36 192 -1 c106 0 197 -1 202 -1 7 -1 10 -194 10 -559 l1 -557 22 -47 c35 -71
86 -92 227 -94 61 -1 135 4 165 10 l55 11 0 618 c0 411 3 617 10 618 5 0 81 1
167 1 130 1 164 4 200 20 91 39 116 170 61 316 -9 23 -18 43 -22 43 -15 3
-1201 4 -1213 1z"/>
<path d="M6647 2854 c-1 -1 -22 -4 -47 -7 -92 -12 -110 -18 -111 -41 -4 -101
0 -1192 4 -1227 25 -191 136 -303 339 -342 81 -15 238 -15 305 1 92 21 165 86
180 159 9 45 9 97 -1 111 -4 6 -6 12 -3 12 6 0 -9 30 -32 65 -12 20 -17 20
-70 10 -76 -16 -169 -12 -208 9 -61 31 -65 45 -65 248 0 101 1 201 1 223 l1
40 143 1 c158 1 188 9 227 65 30 41 32 152 5 224 -10 28 -22 52 -26 55 -4 3
-84 5 -178 4 l-171 0 -1 35 c-2 180 -7 228 -22 258 -23 43 -59 69 -115 82 -42
10 -149 20 -155 15z"/>
<path d="M5436 2599 c-70 -8 -220 -52 -246 -73 -8 -7 -28 -18 -45 -26 -16 -8
-64 -49 -105 -90 -55 -55 -86 -95 -112 -150 -59 -121 -73 -184 -73 -350 0
-124 4 -156 24 -220 78 -250 242 -397 506 -456 17 -3 84 -8 150 -9 229 -6 399
53 531 183 58 57 115 145 140 213 15 42 17 51 29 102 19 77 24 218 12 307 -52
388 -379 617 -811 569z m227 -378 c28 -17 81 -76 82 -91 0 -3 6 -14 12 -25 25
-48 38 -215 22 -302 -26 -144 -106 -223 -223 -223 -149 0 -234 115 -238 322
-3 168 43 276 137 324 43 22 59 25 113 20 37 -3 77 -14 95 -25z"/>
<path d="M8097 2604 c-1 -1 -22 -5 -47 -8 -272 -33 -495 -247 -537 -516 -15
-97 -7 -281 16 -365 69 -247 232 -401 501 -471 69 -18 330 -25 400 -11 19 4
49 10 65 13 53 10 139 44 179 72 100 68 108 219 17 306 l-31 30 -53 -23 c-219
-96 -476 -88 -590 18 -27 25 -62 79 -55 86 2 1 21 5 43 9 22 3 54 8 70 11 17
4 44 8 60 10 57 6 130 17 135 20 3 2 33 6 65 10 33 3 67 8 75 10 13 4 38 8
125 20 11 1 43 6 70 10 104 14 186 72 200 141 7 36 7 121 0 154 -2 14 -8 39
-11 55 -8 38 -62 152 -83 177 -48 57 -82 89 -133 127 -32 23 -61 42 -65 43 -5
1 -26 9 -49 19 -67 30 -173 51 -272 53 -50 2 -93 1 -95 0z m146 -339 c44 -9
121 -79 131 -121 4 -14 5 -28 3 -30 -1 -2 -28 -6 -58 -10 -29 -3 -57 -8 -61
-10 -4 -3 -26 -7 -50 -10 -47 -6 -65 -9 -148 -23 -30 -6 -74 -13 -98 -16 -43
-6 -43 -6 -36 22 37 158 154 231 317 198z"/>
<path d="M1690 2588 c-51 -9 -102 -31 -146 -64 l-31 -23 19 -78 c10 -43 20
-85 22 -93 2 -8 9 -35 16 -60 7 -25 14 -52 15 -60 14 -64 133 -423 165 -495 5
-11 18 -42 30 -70 29 -69 68 -142 102 -192 29 -43 86 -93 106 -93 27 0 19 -22
-25 -71 -63 -69 -166 -168 -225 -216 -56 -45 -59 -63 -22 -137 32 -64 48 -82
104 -115 40 -23 55 -26 140 -26 87 0 101 3 161 32 137 68 275 251 434 578 72
148 166 377 199 485 10 30 21 64 26 75 16 38 46 148 56 205 3 14 9 41 14 60
25 95 28 225 6 268 -42 81 -169 115 -310 83 -97 -23 -100 -26 -125 -153 -25
-124 -90 -392 -123 -503 -11 -38 -21 -74 -23 -80 -7 -34 -39 -130 -50 -152
-10 -19 -16 -23 -19 -12 -2 8 -52 182 -111 388 -107 379 -121 418 -159 459
-46 51 -150 76 -246 60z"/>
</g>
</svg>
